<?xml version="1.0" encoding="UTF-8"?>
<svg xmlns="http://www.w3.org/2000/svg" xmlns:xlink="http://www.w3.org/1999/xlink" width="70pt" height="70pt" viewBox="0 0 70 70" version="1.1">
<g id="surface9254">
<path style=" stroke:none;fill-rule:evenodd;fill:rgb(11.372549%,56.470588%,32.54902%);fill-opacity:1;" d="M 35.039062 0 L 0 35.132812 L 35.039062 70.261719 L 70.074219 35.132812 Z M 35.039062 0 "/>
<path style=" stroke:none;fill-rule:evenodd;fill:rgb(100%,100%,100%);fill-opacity:1;" d="M 35.039062 1.558594 L 1.554688 35.132812 L 35.039062 68.707031 L 68.523438 35.132812 Z M 4.234375 35.132812 L 35.039062 4.242188 L 65.84375 35.132812 L 35.039062 66.019531 Z M 4.234375 35.132812 "/>
<path style=" stroke:none;fill-rule:evenodd;fill:rgb(100%,100%,100%);fill-opacity:1;" d="M 42.273438 56.246094 C 42.273438 56.246094 52.773438 42.617188 52.773438 32.089844 C 52.773438 21.5625 44.460938 14.425781 35.710938 14.425781 C 29.148438 14.425781 26.871094 17.761719 26.871094 19.691406 C 26.871094 21.621094 29.671875 23.257812 32.210938 23.257812 C 35.273438 23.257812 36.390625 21.902344 36.390625 21.902344 C 40.261719 23.433594 47.085938 25.773438 46.734375 35.132812 C 46.488281 41.679688 45.160156 42.792969 43.320312 46.652344 C 40.523438 41.742188 34.921875 33.492188 34.921875 33.492188 L 26.085938 46.417969 C 26.085938 46.417969 22.441406 40.863281 22.234375 33.027344 C 22.210938 32.089844 22.210938 31.675781 22.761719 28.285156 C 26.699219 28.285156 28.972656 27.234375 28.972656 24.835938 C 28.972656 22.523438 25.910156 21.328125 23.722656 21.328125 C 21.535156 21.328125 16.023438 22.789062 16.023438 29.75 C 16.023438 41.859375 27.660156 56.070312 27.660156 56.070312 L 34.921875 46.421875 Z M 42.273438 56.246094 "/>
</g>
</svg>
C 53.730469 48.804688 53.730469 31.550781 53.730469 24.945312 C 53.730469 19.519531 63.691406 19.519531 63.691406 19.519531 L 63.691406 50.28125 C 62.804688 55.703125 58.070312 59.945312 52.550781 59.945312 C 48.902344 59.945312 45.648438 58.167969 43.578125 55.308594 C 41.410156 58.167969 38.15625 59.945312 34.507812 59.945312 C 28.886719 59.945312 24.253906 55.804688 23.367188 50.28125 L 23.269531 48.507812 C 23.269531 48.507812 23.269531 32.535156 23.269531 25.042969 C 23.269531 19.621094 33.226562 19.621094 33.226562 19.621094 C 33.226562 19.621094 33.226562 47.421875 33.226562 47.519531 C 33.226562 49.097656 34.308594 49.984375 35.789062 49.984375 C 37.269531 49.984375 38.550781 49.097656 38.550781 47.519531 C 38.449219 47.324219 38.449219 36.28125 38.449219 31.15625 Z M 38.449219 31.15625 "/>
</g>
</svg>
